<?xml version="1.0" encoding="UTF-8"?>
<svg width="512" height="512" viewBox="0 0 512 512"
 xmlns="http://www.w3.org/2000/svg" role="img" aria-label="Vantide Protocol Logo Mark">
  <defs>
    <linearGradient id="vantideGradient" x1="0%" y1="0%" x2="100%" y2="100%">
      <stop offset="0%" stop-color="#B84DFF"/>
      <stop offset="55%" stop-color="#6A5CFF"/>
      <stop offset="100%" stop-color="#1F6CFF"/>
    </linearGradient>
  </defs>
  <path d="M256 32 C176 32 96 72 96 72 v168 c0 128 160 240 160 240 s160-112 160-240 V72 S336 32 256 32z"
        fill="url(#vantideGradient)"/>
  <path d="M340 188 c-10-40-48-68-88-68 -56 0-96 44-96 100 0 68 56 116 124 116
           36 0 64-16 76-32 -20 12-44 16-64 8 -32-12-52-40-52-76
           0-44 28-72 64-72 16 0 28 6 36 14z"
        fill="#FFFFFF"/>
</svg>
